<svg id="Capa_1" data-name="Capa 1" xmlns="http://www.w3.org/2000/svg" xmlns:xlink="http://www.w3.org/1999/xlink" viewBox="0 0 286.97 204.98"><defs><style>.cls-1{fill:#fff;}.cls-2{fill:none;}.cls-3{clip-path:url(#clip-path);}.cls-4{mask:url(#mask);}.cls-5{fill:#d02f44;}.cls-5,.cls-7{fill-rule:evenodd;}.cls-6{fill:#46467f;}.cls-7{fill:url(#Degradado_sin_nombre_2);}</style><clipPath id="clip-path" transform="translate(-6.52 -47.51)"><rect id="SVGID" class="cls-2" x="6.52" y="47.51" width="286.97" height="204.98" rx="20.5"/></clipPath><mask id="mask" x="0" y="0" width="286.97" height="204.98" maskUnits="userSpaceOnUse"><g transform="translate(-6.52 -47.51)"><g id="mask0_503_3486" data-name="mask0 503 3486"><rect class="cls-1" x="6.52" y="47.51" width="286.97" height="204.98" rx="20.5"/></g></g></mask><linearGradient id="Degradado_sin_nombre_2" x1="-778.3" y1="1010.3" x2="-778.3" y2="1007.91" gradientTransform="matrix(28.57, 0, 0, -28.57, 22305.29, 28927)" gradientUnits="userSpaceOnUse"><stop offset="0" stop-color="#fff"/><stop offset="1" stop-color="#f0f0f0"/></linearGradient></defs><g class="cls-3"><rect class="cls-1" width="286.97" height="204.98" rx="20.5"/><g class="cls-4"><path class="cls-5" d="M293.48,47.51H6.52V61.18h287Zm0,27.33H6.52V88.51h287Zm-287,27.33h287v13.67H6.52Zm287,27.33H6.52v13.67h287Zm-287,27.33h287V170.5H6.52Zm287,27.33H6.52v13.67h287Zm-287,27.33h287v13.67H6.52Zm287,27.33H6.52v13.67h287Z" transform="translate(-6.52 -47.51)"/><rect class="cls-6" width="122.99" height="95.65"/><path class="cls-7" d="M33.85,68A6.84,6.84,0,1,1,27,61.18,6.83,6.83,0,0,1,33.85,68Zm27.33,0a6.84,6.84,0,1,1-6.84-6.83A6.83,6.83,0,0,1,61.18,68Zm20.49,6.83A6.83,6.83,0,1,0,74.84,68,6.83,6.83,0,0,0,81.67,74.84ZM115.84,68A6.84,6.84,0,1,1,109,61.18,6.83,6.83,0,0,1,115.84,68ZM40.68,88.51a6.84,6.84,0,1,0-6.83-6.84A6.83,6.83,0,0,0,40.68,88.51Zm34.16-6.84A6.83,6.83,0,1,1,68,74.84,6.83,6.83,0,0,1,74.84,81.67Zm20.5,6.84a6.84,6.84,0,1,0-6.83-6.84A6.83,6.83,0,0,0,95.34,88.51Zm20.5,6.83A6.84,6.84,0,1,1,109,88.51,6.83,6.83,0,0,1,115.84,95.34Zm-34.17,6.83a6.83,6.83,0,1,0-6.83-6.83A6.83,6.83,0,0,0,81.67,102.17ZM61.18,95.34a6.84,6.84,0,1,1-6.84-6.83A6.83,6.83,0,0,1,61.18,95.34ZM27,102.17a6.83,6.83,0,1,0-6.83-6.83A6.83,6.83,0,0,0,27,102.17ZM47.51,109a6.83,6.83,0,1,1-6.83-6.83A6.83,6.83,0,0,1,47.51,109ZM68,115.84A6.84,6.84,0,1,0,61.18,109,6.83,6.83,0,0,0,68,115.84ZM102.17,109a6.83,6.83,0,1,1-6.83-6.83A6.83,6.83,0,0,1,102.17,109ZM109,129.5a6.83,6.83,0,1,0-6.83-6.83A6.83,6.83,0,0,0,109,129.5Zm-20.49-6.83a6.84,6.84,0,1,1-6.84-6.83A6.83,6.83,0,0,1,88.51,122.67ZM54.34,129.5a6.83,6.83,0,1,0-6.83-6.83A6.83,6.83,0,0,0,54.34,129.5Zm-20.49-6.83A6.84,6.84,0,1,1,27,115.84,6.83,6.83,0,0,1,33.85,122.67Z" transform="translate(-6.52 -47.51)"/></g></g></svg>