<svg id="Capa_1" data-name="Capa 1" xmlns="http://www.w3.org/2000/svg" viewBox="0 0 286.97 204.98"><defs><style>.cls-1{fill:#76addd;}.cls-2{fill:#fff;}.cls-3{fill:#f4b32e;}.cls-4{fill:#843413;}</style></defs><path class="cls-1" d="M293.48,232a20.6,20.6,0,0,1-20.71,20.49H27.23A20.6,20.6,0,0,1,6.52,232V68A20.6,20.6,0,0,1,27.23,47.51H272.77A20.6,20.6,0,0,1,293.48,68Z" transform="translate(-6.52 -47.51)"/><path class="cls-2" d="M6.52,102.7h287v94.6H6.52Z" transform="translate(-6.52 -47.51)"/><path class="cls-3" d="M150,113.49c-.6.75-1,20-1,22.12h2.27s.17-20.58-.58-22.2C150.4,112.7,150,113.49,150,113.49Z" transform="translate(-6.52 -47.51)"/><path class="cls-4" d="M151.45,135.74h-2.52v-.13c0-1.12.34-21.37,1-22.2,0,0,.21-.43.5-.43s.32.13.44.37c.75,1.63.59,21.42.58,22.26Zm-2.26-.26h2c0-1.76.13-20.51-.56-22-.07-.13-.15-.21-.21-.21s-.22.18-.28.3C149.59,114.29,149.2,132.52,149.19,135.48Z" transform="translate(-6.52 -47.51)"/><polygon class="cls-4" points="143.53 88.05 143.64 74.77 143.87 88.01 143.53 88.05"/><path class="cls-3" d="M136.07,116.58c-.25.94,7,18.73,7.83,20.64l2.07-.93s-7.95-18.91-9.27-20.08C136.1,115.71,136.07,116.58,136.07,116.58Z" transform="translate(-6.52 -47.51)"/><path class="cls-4" d="M143.83,137.4l-.05-.12c-.44-1-8.12-19.7-7.83-20.74,0-.21.1-.62.42-.62a.63.63,0,0,1,.41.19c1.33,1.18,9,19.35,9.31,20.13l0,.12Zm-7.46-21.22c-.12,0-.17.28-.17.4-.22.91,6.61,17.76,7.77,20.47l1.83-.83c-.68-1.61-8-18.82-9.19-19.91C136.48,116.2,136.41,116.18,136.37,116.18Z" transform="translate(-6.52 -47.51)"/><polygon class="cls-4" points="138.26 89.25 133.13 77.06 138.56 89.08 138.26 89.25"/><path class="cls-3" d="M164.16,116.57c-.85.45-8.79,17.93-9.62,19.84l2.07.93s8.28-18.75,8.24-20.54C164.81,116,164.16,116.57,164.16,116.57Z" transform="translate(-6.52 -47.51)"/><path class="cls-4" d="M156.68,137.52l-2.31-1,0-.12c.45-1,8.74-19.41,9.68-19.9a.89.89,0,0,1,.48-.21c.14,0,.37.07.4.54,0,1.8-7.91,19.84-8.25,20.61Zm-2-1.18,1.84.83c.7-1.6,8.21-18.7,8.18-20.37,0-.19-.06-.29-.15-.29a.64.64,0,0,0-.33.16C163.44,117.12,155.89,133.64,154.71,136.34Z" transform="translate(-6.52 -47.51)"/><polygon class="cls-4" points="148.95 89.26 154.29 77.16 149.27 89.36 148.95 89.26"/><path class="cls-3" d="M175.29,124.12c-.94.1-14.56,13.44-16,14.91l1.59,1.64s14.38-14.4,15-16.08C176.1,123.84,175.29,124.12,175.29,124.12Z" transform="translate(-6.52 -47.51)"/><path class="cls-4" d="M160.88,140.86,159.11,139l.09-.09c.77-.79,15-14.82,16.08-15a1,1,0,0,1,.31,0,.41.41,0,0,1,.37.16.59.59,0,0,1,0,.53c-.6,1.7-14.42,15.55-15,16.14ZM159.47,139l1.42,1.46c1.22-1.23,14.29-14.38,14.85-16,0-.13,0-.24,0-.29a.21.21,0,0,0-.16,0,1,1,0,0,0-.26,0C174.43,124.37,161.53,137,159.47,139Z" transform="translate(-6.52 -47.51)"/><polygon class="cls-4" points="153.5 92.2 162.78 82.91 153.77 92.42 153.5 92.2"/><path class="cls-3" d="M158.07,114.42a3.55,3.55,0,0,0-2.59,3.54,30.58,30.58,0,0,1-.71,5.93c-.25.85-1.79,4.61-2.26,6.76a29.44,29.44,0,0,0-.46,5l2.15.56s.45-3.38.42-4.43a38.66,38.66,0,0,1,1.79-6.61,13,13,0,0,0,.35-5c-.13-1.44-.8-2.82.1-3.77S158.94,114.45,158.07,114.42Z" transform="translate(-6.52 -47.51)"/><path class="cls-4" d="M154.3,136.37l-2.38-.62v-.1a30,30,0,0,1,.47-5,49.2,49.2,0,0,1,1.75-5.36c.25-.65.44-1.16.51-1.41a30,30,0,0,0,.7-5.89c.06-2.38,2-3.67,2.7-3.67.24,0,.38.08.43.21.12.31-.31.77-1.08,1.54l-.45.47c-.61.64-.44,1.5-.25,2.5a10.58,10.58,0,0,1,.19,1.17,13.85,13.85,0,0,1-.36,5,37.86,37.86,0,0,0-1.79,6.56c0,1.05-.4,4.31-.42,4.45Zm-2.12-.82,1.91.49a42.46,42.46,0,0,0,.4-4.25c0-1.09,1.44-5.73,1.8-6.67a13.31,13.31,0,0,0,.34-4.92,10.42,10.42,0,0,0-.18-1.14c-.2-1-.39-2,.31-2.73l.46-.47c.4-.41,1.08-1.1,1-1.26,0,0,0,0-.17,0h0a3.43,3.43,0,0,0-2.46,3.41,31.47,31.47,0,0,1-.71,6c-.08.26-.27.77-.52,1.42a47.92,47.92,0,0,0-1.74,5.33A28.79,28.79,0,0,0,152.18,135.55Z" transform="translate(-6.52 -47.51)"/><path class="cls-4" d="M153.08,135.78a23.56,23.56,0,0,1,0-3,16.47,16.47,0,0,1,1.86-6.62,9,9,0,0,0,.86-2.59,10.65,10.65,0,0,1-.74,2.75,16.46,16.46,0,0,0-1.79,7.74l.06,1.93Z" transform="translate(-6.52 -47.51)"/><path class="cls-3" d="M170.79,120.35a3.5,3.5,0,0,0-3.74,2.23,29.75,29.75,0,0,1-2.9,5.18c-.56.68-3.41,3.53-4.66,5.33a29,29,0,0,0-2.33,4.42l1.76,1.37S160.63,136,161,135s3.48-4.66,4.17-5.38a13.1,13.1,0,0,0,2.22-4.45c.43-1.38.33-2.91,1.52-3.43S171.57,120.73,170.79,120.35Z" transform="translate(-6.52 -47.51)"/><path class="cls-4" d="M159,139.07l-2-1.52,0-.09a28.66,28.66,0,0,1,2.35-4.45,44.94,44.94,0,0,1,3.66-4.24c.47-.5.84-.89,1-1.09a30.47,30.47,0,0,0,2.89-5.16,3.83,3.83,0,0,1,3.37-2.38,1.33,1.33,0,0,1,.54.1c.19.09.29.21.28.35,0,.33-.57.58-1.57,1l-.6.25c-.8.35-1,1.21-1.18,2.2a9.56,9.56,0,0,1-.27,1.15,13.38,13.38,0,0,1-2.25,4.5c-.74.77-3.79,4.39-4.14,5.34s-2,3.8-2.09,3.92Zm-1.64-1.6,1.57,1.21c.33-.57,1.67-2.92,2-3.76.38-1,3.5-4.7,4.19-5.42a13.12,13.12,0,0,0,2.19-4.4,9.11,9.11,0,0,0,.27-1.12c.21-1,.4-2,1.33-2.39l.6-.25c.53-.22,1.41-.58,1.42-.76,0,0,0,0-.14-.11a3.35,3.35,0,0,0-3.57,2.16,30.23,30.23,0,0,1-2.92,5.21c-.17.21-.55.61-1,1.11a46.87,46.87,0,0,0-3.63,4.21A28.73,28.73,0,0,0,157.32,137.47Z" transform="translate(-6.52 -47.51)"/><path class="cls-4" d="M158.05,138a26,26,0,0,1,1.18-2.77,16.19,16.19,0,0,1,4.23-5.35,9.25,9.25,0,0,0,1.79-2,10.69,10.69,0,0,1-1.73,2.24c-1,1-2.57,2-4.6,6.41l-.67,1.8Z" transform="translate(-6.52 -47.51)"/><path class="cls-3" d="M183.22,136.5c-.9-.31-18.68,6.1-20.59,6.83l.79,2.17s18.9-7.06,20.13-8.34C184.07,136.57,183.22,136.5,183.22,136.5Z" transform="translate(-6.52 -47.51)"/><path class="cls-4" d="M163.35,145.66l-.89-2.41.12,0c1.63-.63,18.87-6.85,20.55-6.85h.13s.46,0,.56.33,0,.34-.18.55c-1.23,1.29-19.4,8.08-20.17,8.37Zm-.55-2.25.7,1.92c1.61-.6,18.82-7.07,20-8.26.1-.12.15-.22.12-.27s-.24-.16-.37-.17h-.08C181.6,136.62,165.44,142.41,162.8,143.41Z" transform="translate(-6.52 -47.51)"/><polygon class="cls-4" points="156.51 96.74 168.7 92.19 156.66 97.05 156.51 96.74"/><path class="cls-3" d="M185.83,149.88c-.73-.62-19.58-1-21.62-1v2.32s20.12.2,21.7-.57C186.6,150.25,185.83,149.88,185.83,149.88Z" transform="translate(-6.52 -47.51)"/><path class="cls-4" d="M169.64,151.33h0c-3.08,0-5.4,0-5.42,0h-.13v-2.58h.13c1.1,0,20.89.36,21.71,1.05,0,0,.41.2.41.5s-.12.33-.36.45C184.93,151.23,176.51,151.33,169.64,151.33Zm-5.3-.28c.52,0,2.62,0,5.29,0,9.69,0,15.46-.2,16.23-.57.13-.07.21-.15.21-.21s-.17-.24-.29-.29c-.72-.57-18.55-1-21.44-1Z" transform="translate(-6.52 -47.51)"/><polygon class="cls-4" points="157.75 102.36 170.72 102.49 157.78 102.71 157.75 102.36"/><path class="cls-3" d="M180.4,130.64a3.42,3.42,0,0,0-4.28.57,28.84,28.84,0,0,1-4.64,3.63c-.77.41-4.48,1.91-6.31,3.08a28.32,28.32,0,0,0-3.81,3.16l1.11,2s2.67-2,3.38-2.79,5-2.93,5.88-3.32a12.56,12.56,0,0,0,3.73-3.22c.91-1.1,1.4-2.56,2.7-2.57S181,131.29,180.4,130.64Z" transform="translate(-6.52 -47.51)"/><path class="cls-4" d="M162.43,143.23l-1.24-2.18.08-.07a28.19,28.19,0,0,1,3.84-3.17,46,46,0,0,1,5-2.47c.62-.27,1.11-.49,1.34-.61a29.44,29.44,0,0,0,4.61-3.61,3.87,3.87,0,0,1,2.71-1.11,2.58,2.58,0,0,1,1.76.54c.14.16.19.31.13.44s-.56.3-1.3.3h-1.17c-.88,0-1.36.72-1.92,1.56a8.81,8.81,0,0,1-.69.95,13,13,0,0,1-3.77,3.26c-1,.43-5.15,2.56-5.84,3.29s-3.29,2.72-3.4,2.8Zm-.91-2.13,1,1.74a41.22,41.22,0,0,0,3.25-2.68c.74-.78,5-2.95,5.92-3.35a12.89,12.89,0,0,0,3.68-3.19c.24-.29.46-.62.67-.93.58-.86,1.12-1.67,2.12-1.68h1.18c.91,0,1-.1,1.07-.14s0-.06-.09-.15a2.4,2.4,0,0,0-1.57-.46,3.64,3.64,0,0,0-2.54,1,29.5,29.5,0,0,1-4.66,3.65c-.24.12-.73.34-1.36.62a45.42,45.42,0,0,0-4.94,2.45A27.3,27.3,0,0,0,161.52,141.1Z" transform="translate(-6.52 -47.51)"/><path class="cls-4" d="M162,141.92a23.59,23.59,0,0,1,2.13-2.09,15.83,15.83,0,0,1,5.92-3.26,8.65,8.65,0,0,0,2.42-1.18,10.16,10.16,0,0,1-2.44,1.38c-1.32.5-3.14.85-6.66,4.1l-1.3,1.4Z" transform="translate(-6.52 -47.51)"/><path class="cls-3" d="M185.15,144.09a3.46,3.46,0,0,0-4.17-1.18,28.51,28.51,0,0,1-5.65,1.5c-.87.06-4.85,0-7,.31a28.46,28.46,0,0,0-4.72,1.39l.28,2.25s3.24-.8,4.18-1.22,5.69-.71,6.67-.71a12.13,12.13,0,0,0,4.66-1.49c1.27-.64,2.27-1.79,3.47-1.28S185.44,144.92,185.15,144.09Z" transform="translate(-6.52 -47.51)"/><path class="cls-4" d="M163.8,148.52l-.31-2.49.09,0a28.47,28.47,0,0,1,4.75-1.39,43.39,43.39,0,0,1,5.52-.29c.68,0,1.21,0,1.47,0a29.43,29.43,0,0,0,5.62-1.49,4,4,0,0,1,1.4-.26,3.34,3.34,0,0,1,2.93,1.51.46.46,0,0,1,0,.42.34.34,0,0,1-.29.13h0a5.25,5.25,0,0,1-1.54-.55l-.59-.26a1.41,1.41,0,0,0-.56-.12,3.62,3.62,0,0,0-1.8.8,11,11,0,0,1-1,.6,12.76,12.76,0,0,1-4.72,1.5c-1,0-5.72.3-6.62.7s-4.07,1.19-4.2,1.23Zm0-2.32.25,2a41.39,41.39,0,0,0,4-1.18c1-.43,5.74-.72,6.72-.72a12.93,12.93,0,0,0,4.61-1.47c.33-.18.66-.39,1-.59a3.77,3.77,0,0,1,1.94-.84,1.74,1.74,0,0,1,.66.14l.59.26a5.31,5.31,0,0,0,1.44.53.12.12,0,0,0,.08,0s0-.06,0-.18a3.11,3.11,0,0,0-2.69-1.34A3.84,3.84,0,0,0,181,143a28.68,28.68,0,0,1-5.68,1.51c-.27,0-.8,0-1.49,0a44.58,44.58,0,0,0-5.48.28A27.65,27.65,0,0,0,163.77,146.2Z" transform="translate(-6.52 -47.51)"/><path class="cls-4" d="M163.89,147.14a23.76,23.76,0,0,1,2.75-1.08,15.69,15.69,0,0,1,6.7-.64,8.42,8.42,0,0,0,2.67-.13,10,10,0,0,1-2.77.31c-1.4-.07-3.21-.47-7.69,1.11l-1.74.77Z" transform="translate(-6.52 -47.51)"/><path class="cls-3" d="M183.12,164.32c-.43-.86-17.58-8.87-19.46-9.7l-.89,2.13s18.39,8.34,20.14,8.28C183.68,165,183.12,164.32,183.12,164.32Z" transform="translate(-6.52 -47.51)"/><path class="cls-4" d="M182.89,165.16c-1.86,0-19.43-7.95-20.18-8.29l-.11-.05,1-2.37.12.05c1,.45,19,8.8,19.52,9.76,0,0,.29.36.18.64s-.23.25-.5.26Zm-20-8.48c1.57.71,18.23,8.22,20,8.22V165l0-.13c.15,0,.25-.05.27-.1s-.07-.29-.15-.39c-.44-.82-16.65-8.43-19.3-9.61Z" transform="translate(-6.52 -47.51)"/><polygon class="cls-4" points="156.8 108.06 168.67 113.44 156.7 108.39 156.8 108.06"/><path class="cls-3" d="M185.06,158a3.52,3.52,0,0,0-3.48-2.63,28.46,28.46,0,0,1-5.8-.67c-.84-.26-4.52-1.81-6.63-2.27a27.9,27.9,0,0,0-4.89-.43l-.53,2.2s3.31.43,4.33.39,5.57,1.43,6.48,1.79a12.25,12.25,0,0,0,4.87.32c1.41-.14,2.75-.84,3.69.07S185,158.88,185.06,158Z" transform="translate(-6.52 -47.51)"/><path class="cls-4" d="M184.88,158.43h0c-.31,0-.74-.42-1.41-1.11-.16-.16-.31-.32-.46-.46a1.54,1.54,0,0,0-1.14-.43,7.16,7.16,0,0,0-1.3.19,10.2,10.2,0,0,1-1.15.2,17.08,17.08,0,0,1-1.88.1,9.17,9.17,0,0,1-3-.43,37.92,37.92,0,0,0-6.4-1.78h0c-1,0-4.22-.38-4.35-.39l-.15,0,.59-2.44h.1a27.72,27.72,0,0,1,4.92.43,45.58,45.58,0,0,1,5.25,1.76c.64.24,1.14.44,1.39.51a27.78,27.78,0,0,0,5.76.67,3.93,3.93,0,0,1,2.82,1.25,2.59,2.59,0,0,1,.79,1.52C185.17,158.37,185,158.43,184.88,158.43Zm-3-2.26a1.74,1.74,0,0,1,1.31.5l.47.46c.45.46,1,1,1.23,1,0,0,.05-.15.05-.18a2.34,2.34,0,0,0-.71-1.33,3.58,3.58,0,0,0-2.64-1.16,29,29,0,0,1-5.84-.69c-.25-.08-.76-.27-1.4-.51a43.7,43.7,0,0,0-5.21-1.75,26.91,26.91,0,0,0-4.77-.43l-.47,1.95a38.18,38.18,0,0,0,4.16.38h0a38.39,38.39,0,0,1,6.49,1.79,8.51,8.51,0,0,0,2.95.42c.76,0,1.43-.06,1.86-.1s.75-.12,1.12-.19A6.68,6.68,0,0,1,181.87,156.17Z" transform="translate(-6.52 -47.51)"/><path class="cls-4" d="M164.14,153a21.38,21.38,0,0,1,3,0,15.56,15.56,0,0,1,6.48,1.85,8.62,8.62,0,0,0,2.54.87,10.34,10.34,0,0,1-2.7-.74,15.39,15.39,0,0,0-7.57-1.78l-1.89.08Z" transform="translate(-6.52 -47.51)"/><path class="cls-3" d="M175.47,175.59c-.11-1-13.35-14.7-14.81-16.15l-1.58,1.65s14.28,14.5,15.94,15.08C175.76,176.41,175.47,175.59,175.47,175.59Z" transform="translate(-6.52 -47.51)"/><path class="cls-4" d="M175.25,176.35a1,1,0,0,1-.27,0c-1.67-.59-15.41-14.52-16-15.11l-.09-.1,1.76-1.84.09.09c.79.79,14.72,15.16,14.84,16.23a.77.77,0,0,1,0,.62A.35.35,0,0,1,175.25,176.35Zm-16-15.26c1.22,1.24,14.26,14.41,15.8,15l.19,0c.09,0,.11,0,.12,0a.6.6,0,0,0,0-.41c-.12-.92-12.62-13.93-14.68-16Z" transform="translate(-6.52 -47.51)"/><polygon class="cls-4" points="153.49 112.68 162.7 122.03 153.28 112.96 153.49 112.68"/><path class="cls-3" d="M163.67,184c.28-.93-6.55-18.91-7.33-20.84l-2.09.88s7.49,19.1,8.79,20.31C163.62,184.88,163.67,184,163.67,184Z" transform="translate(-6.52 -47.51)"/><path class="cls-4" d="M163.36,184.66h0a.68.68,0,0,1-.41-.2c-1.3-1.22-8.51-19.58-8.82-20.36l0-.12,2.33-1,.05.12c.42,1,7.64,19.89,7.34,20.92C163.79,184.25,163.68,184.66,163.36,184.66Zm-9-20.54c.65,1.63,7.51,19,8.71,20.15a.39.39,0,0,0,.24.12c.12,0,.18-.29.18-.39.24-.9-6.18-17.92-7.27-20.66Z" transform="translate(-6.52 -47.51)"/><polygon class="cls-4" points="148.93 116.09 153.76 128.41 148.63 116.26 148.93 116.09"/><path class="cls-3" d="M169.38,180.85a3.63,3.63,0,0,0-.71-4.36,29.88,29.88,0,0,1-3.69-4.63c-.42-.78-2-4.52-3.2-6.35a29,29,0,0,0-3.21-3.8l-1.88,1.2s2.07,2.67,2.83,3.37,3,5,3.43,5.9a12.45,12.45,0,0,0,3.27,3.71c1.1.9,2.54,1.36,2.59,2.68S168.75,181.47,169.38,180.85Z" transform="translate(-6.52 -47.51)"/><path class="cls-4" d="M169.14,181.12h0c-.41,0-.43-.79-.44-1.89,0-.22,0-.44,0-.66,0-.89-.75-1.36-1.59-1.9a10.31,10.31,0,0,1-1-.68,13.36,13.36,0,0,1-3.31-3.75c-.44-1-2.66-5.19-3.4-5.86s-2.76-3.28-2.84-3.39l-.09-.12,2.08-1.33.08.07a28.94,28.94,0,0,1,3.22,3.83,46.17,46.17,0,0,1,2.57,5c.29.62.52,1.12.64,1.35a29.55,29.55,0,0,0,3.68,4.59,4.11,4.11,0,0,1,1.17,2.91,2.6,2.6,0,0,1-.48,1.64A.46.46,0,0,1,169.14,181.12Zm-12.26-18.18c.4.52,2.07,2.64,2.72,3.24.8.73,3.05,5,3.46,5.95a13,13,0,0,0,3.24,3.66,9.71,9.71,0,0,0,.93.65c.86.57,1.67,1.1,1.71,2.12,0,.22,0,.44,0,.67,0,.48,0,1.62.19,1.62s.05,0,.15-.09a2.34,2.34,0,0,0,.39-1.46,3.73,3.73,0,0,0-1.1-2.72,29.9,29.9,0,0,1-3.71-4.66c-.13-.23-.36-.73-.65-1.36a47.44,47.44,0,0,0-2.55-5,29.43,29.43,0,0,0-3.12-3.71Z" transform="translate(-6.52 -47.51)"/><path class="cls-4" d="M157.77,162.37a23.39,23.39,0,0,1,2.1,2.11,16.4,16.4,0,0,1,3.38,6,9.08,9.08,0,0,0,1.23,2.43,10.49,10.49,0,0,1-1.43-2.45,16.29,16.29,0,0,0-4.21-6.68l-1.41-1.29Z" transform="translate(-6.52 -47.51)"/><path class="cls-3" d="M179.42,171.06a3.59,3.59,0,0,0-2.2-3.8,29.55,29.55,0,0,1-5.09-2.94c-.67-.57-3.47-3.46-5.24-4.73a27.92,27.92,0,0,0-4.33-2.35l-1.33,1.82s2.88,1.72,3.84,2.09,4.58,3.53,5.29,4.22a12.22,12.22,0,0,0,4.36,2.24c1.35.43,2.85.33,3.36,1.54S179.06,171.87,179.42,171.06Z" transform="translate(-6.52 -47.51)"/><path class="cls-4" d="M179.2,171.41c-.33,0-.58-.58-1-1.6-.08-.21-.16-.42-.25-.61-.34-.82-1.18-1-2.15-1.19a9.26,9.26,0,0,1-1.13-.27,12.93,12.93,0,0,1-4.41-2.27,37.32,37.32,0,0,0-5.25-4.2,43.62,43.62,0,0,1-3.85-2.1l-.13-.07,1.47-2,.1,0a28.51,28.51,0,0,1,4.36,2.37,44.61,44.61,0,0,1,4.16,3.71c.5.47.89.85,1.09,1a29.16,29.16,0,0,0,5.05,2.92,4,4,0,0,1,2.13,2.27,2.66,2.66,0,0,1,.14,1.71C179.45,171.31,179.34,171.41,179.2,171.41ZM161.42,159c.56.33,2.87,1.69,3.69,2,1,.38,4.62,3.55,5.33,4.25a12.69,12.69,0,0,0,4.32,2.21,10.34,10.34,0,0,0,1.1.26c1,.21,1.94.4,2.34,1.34.08.2.17.41.25.62.22.54.58,1.44.75,1.44,0,0,.05,0,.1-.14a2.35,2.35,0,0,0-.14-1.51,3.68,3.68,0,0,0-2-2.12,29.61,29.61,0,0,1-5.12-3c-.2-.17-.59-.55-1.09-1a45.45,45.45,0,0,0-4.14-3.69,28.64,28.64,0,0,0-4.22-2.3Z" transform="translate(-6.52 -47.51)"/><path class="cls-4" d="M162.05,158.16a22.05,22.05,0,0,1,2.71,1.19,15.92,15.92,0,0,1,5.26,4.29,8.48,8.48,0,0,0,2,1.8,10.35,10.35,0,0,1-2.21-1.75,15.83,15.83,0,0,0-6.29-4.65l-1.77-.68Z" transform="translate(-6.52 -47.51)"/><path class="cls-3" d="M150.67,186.51c.59-.76.86-20,.85-22.13h-2.26s-.06,20.59.69,22.2C150.3,187.3,150.67,186.51,150.67,186.51Z" transform="translate(-6.52 -47.51)"/><path class="cls-4" d="M150.27,187h0c-.17,0-.31-.13-.44-.37-.75-1.63-.7-21.41-.7-22.26v-.13h2.52v.13c0,1.12-.22,21.37-.88,22.21C150.76,186.61,150.57,187,150.27,187Zm-.88-22.5c0,1.76,0,20.51.67,22,.07.13.15.21.21.21s.23-.18.28-.3c.55-.74.85-19,.84-21.94Z" transform="translate(-6.52 -47.51)"/><polygon class="cls-4" points="144.02 116.93 143.98 130.2 143.68 116.97 144.02 116.93"/><path class="cls-3" d="M142.6,185.87a3.55,3.55,0,0,0,2.54-3.57,30.55,30.55,0,0,1,.63-5.94c.24-.86,1.73-4.64,2.17-6.79a30.1,30.1,0,0,0,.4-5l-2.16-.53s-.4,3.39-.36,4.43-1.36,5.7-1.7,6.64a13.25,13.25,0,0,0-.29,5c.15,1.44.84,2.8,0,3.77S141.73,185.85,142.6,185.87Z" transform="translate(-6.52 -47.51)"/><path class="cls-4" d="M142.61,186h0c-.21,0-.35-.07-.4-.2-.12-.31.3-.77,1.05-1.56l.45-.47c.6-.65.42-1.51.22-2.5a11,11,0,0,1-.2-1.17,13.56,13.56,0,0,1,.29-5c.37-1,1.74-5.58,1.69-6.59s.35-4.31.37-4.45v-.15l2.39.59v.1a30,30,0,0,1-.4,5,47.1,47.1,0,0,1-1.69,5.39c-.23.65-.42,1.17-.49,1.42a30.14,30.14,0,0,0-.62,5.9A3.67,3.67,0,0,1,142.61,186Zm3.68-21.8c-.07.65-.38,3.35-.34,4.26.05,1.09-1.36,5.75-1.71,6.69a13.31,13.31,0,0,0-.28,4.92,11.05,11.05,0,0,0,.2,1.15c.21,1,.41,2-.28,2.73l-.45.47c-.4.42-1.07,1.12-1,1.28s0,0,.17,0v0a3.47,3.47,0,0,0,2.4-3.44,30.67,30.67,0,0,1,.64-6c.07-.26.26-.77.49-1.43a47,47,0,0,0,1.68-5.35,28.86,28.86,0,0,0,.39-4.88Z" transform="translate(-6.52 -47.51)"/><path class="cls-4" d="M147.31,164.44a25,25,0,0,1,0,3,16.55,16.55,0,0,1-1.77,6.64,8.71,8.71,0,0,0-.83,2.6,10.71,10.71,0,0,1,.7-2.76c.56-1.32,1.56-2.91,1.69-7.76l-.09-1.93Z" transform="translate(-6.52 -47.51)"/><path class="cls-3" d="M156.2,186.24a3.63,3.63,0,0,0,1.11-4.28,30.89,30.89,0,0,1-1.53-5.77c-.07-.88,0-5-.39-7.13a29,29,0,0,0-1.4-4.81l-2.2.31s.82,3.3,1.24,4.26a39.14,39.14,0,0,1,.77,6.82,12.93,12.93,0,0,0,1.5,4.75c.65,1.29,1.78,2.3,1.3,3.53S155.39,186.54,156.2,186.24Z" transform="translate(-6.52 -47.51)"/><path class="cls-4" d="M156,186.41h0a.28.28,0,0,1-.25-.13c-.17-.26.06-.86.46-1.81l.25-.6c.32-.83-.15-1.56-.69-2.41a10,10,0,0,1-.6-1,13.6,13.6,0,0,1-1.52-4.81,38.33,38.33,0,0,0-.76-6.77c-.41-1-1.21-4.15-1.24-4.28l0-.14,2.44-.35,0,.1a28.88,28.88,0,0,1,1.42,4.84,47.08,47.08,0,0,1,.34,5.64c0,.69,0,1.24,0,1.5a30.26,30.26,0,0,0,1.52,5.73,4.18,4.18,0,0,1-.09,3.15,2.6,2.6,0,0,1-1.09,1.3A.8.8,0,0,1,156,186.41ZM152,164.67c.16.64.84,3.27,1.2,4.1.43,1,.76,5.86.78,6.87a13.18,13.18,0,0,0,1.49,4.69c.17.34.38.67.58,1,.56.87,1.09,1.69.72,2.65-.08.19-.17.4-.25.61-.24.55-.59,1.4-.49,1.56h0l.14,0a2.37,2.37,0,0,0,1-1.16,3.83,3.83,0,0,0,.08-2.94,31.46,31.46,0,0,1-1.54-5.8c0-.27,0-.83,0-1.52a48.72,48.72,0,0,0-.34-5.61,29.34,29.34,0,0,0-1.37-4.69Z" transform="translate(-6.52 -47.51)"/><path class="cls-4" d="M153,164.52a23.43,23.43,0,0,1,1.07,2.81,16.58,16.58,0,0,1,.71,6.84,9.21,9.21,0,0,0,.15,2.73,10.55,10.55,0,0,1-.32-2.83,16.48,16.48,0,0,0-1.18-7.85l-.77-1.77Z" transform="translate(-6.52 -47.51)"/><path class="cls-3" d="M136.33,183.93c.85-.45,8.61-18,9.41-20l-2.08-.91s-8.08,18.85-8,20.64C135.69,184.5,136.33,183.93,136.33,183.93Z" transform="translate(-6.52 -47.51)"/><path class="cls-4" d="M135.91,184.26h0c-.13,0-.37-.07-.4-.54-.06-1.8,7.7-19.93,8-20.7l.05-.12,2.32,1,0,.12c-.43,1-8.53,19.5-9.47,20A.8.8,0,0,1,135.91,184.26Zm7.82-21c-.69,1.61-8,18.8-8,20.47,0,.19.06.29.14.29a.73.73,0,0,0,.34-.17c.79-.46,8.17-17.06,9.32-19.78Z" transform="translate(-6.52 -47.51)"/><polygon class="cls-4" points="138.3 116.12 133.08 128.28 137.97 116.02 138.3 116.12"/><path class="cls-3" d="M125.48,176.18c1-.09,14.59-13.4,16-14.87l-1.59-1.64s-14.41,14.36-15,16.05C124.68,176.47,125.48,176.18,125.48,176.18Z" transform="translate(-6.52 -47.51)"/><path class="cls-4" d="M125.18,176.37h0a.41.41,0,0,1-.36-.16.58.58,0,0,1,0-.54c.6-1.69,14.45-15.51,15-16.1l.09-.09,1.77,1.83-.09.09c-.78.8-15.05,14.79-16.11,14.91A1,1,0,0,1,125.18,176.37Zm14.75-16.52c-1.23,1.23-14.33,14.34-14.89,15.91a.37.37,0,0,0,0,.29.22.22,0,0,0,.16,0h0a1,1,0,0,0,.26,0c.91-.12,13.84-12.67,15.9-14.75Z" transform="translate(-6.52 -47.51)"/><polygon class="cls-4" points="134.27 113.12 124.98 122.38 134.01 112.9 134.27 113.12"/><path class="cls-3" d="M129.55,180a3.45,3.45,0,0,0,3.75-2.18,30.38,30.38,0,0,1,3-5.16c.57-.67,3.44-3.49,4.71-5.28a29.21,29.21,0,0,0,2.37-4.39l-1.75-1.39s-1.73,2.91-2.11,3.89-3.53,4.63-4.22,5.34a12.78,12.78,0,0,0-2.26,4.42c-.45,1.37-.37,2.91-1.56,3.42S128.77,179.65,129.55,180Z" transform="translate(-6.52 -47.51)"/><path class="cls-4" d="M130.05,180.25h0a1.22,1.22,0,0,1-.56-.1c-.19-.09-.29-.21-.28-.35,0-.34.58-.58,1.58-1l.6-.24c.81-.35,1-1.2,1.2-2.19a9.68,9.68,0,0,1,.29-1.15,13.54,13.54,0,0,1,2.29-4.48c.74-.76,3.83-4.35,4.19-5.29s2-3.79,2.12-3.91l.07-.12L143.5,163l0,.09a30.34,30.34,0,0,1-2.39,4.42,45,45,0,0,1-3.7,4.2c-.47.5-.85.89-1,1.09a29.72,29.72,0,0,0-2.94,5.12A3.87,3.87,0,0,1,130.05,180.25Zm11.57-18.42a42.4,42.4,0,0,0-2,3.74c-.4,1-3.55,4.66-4.25,5.38a13.06,13.06,0,0,0-2.23,4.37,11.46,11.46,0,0,0-.28,1.12c-.22,1-.42,2-1.35,2.38l-.6.24c-.53.22-1.42.57-1.43.75,0,0,0,.05.14.1a1,1,0,0,0,.45.08,3.61,3.61,0,0,0,3.14-2.2,30.09,30.09,0,0,1,3-5.18c.17-.21.55-.6,1-1.1a45.65,45.65,0,0,0,3.67-4.17,28.17,28.17,0,0,0,2.32-4.28Z" transform="translate(-6.52 -47.51)"/><path class="cls-4" d="M142.45,162.48a24.86,24.86,0,0,1-1.2,2.75,16.14,16.14,0,0,1-4.29,5.31,9,9,0,0,0-1.8,2,10.66,10.66,0,0,1,1.75-2.22c1-1,2.59-2,4.66-6.36l.69-1.8Z" transform="translate(-6.52 -47.51)"/><path class="cls-3" d="M120,170a3.41,3.41,0,0,0,4.27-.65,28.85,28.85,0,0,1,4.58-3.71c.76-.43,4.44-2,6.25-3.19a28.65,28.65,0,0,0,3.76-3.22l-1.14-1.94s-2.64,2.07-3.34,2.84-4.92,3-5.82,3.42a12.75,12.75,0,0,0-3.67,3.29c-.9,1.12-1.37,2.58-2.66,2.61S119.37,169.35,120,170Z" transform="translate(-6.52 -47.51)"/><path class="cls-4" d="M121.57,170.59h0a2.55,2.55,0,0,1-1.7-.51.44.44,0,0,1-.14-.44c.13-.3.75-.32,1.83-.32h.64c.87,0,1.34-.75,1.89-1.59a10.47,10.47,0,0,1,.67-1,13.33,13.33,0,0,1,3.72-3.33c1-.44,5.11-2.65,5.78-3.39s3.24-2.77,3.35-2.86l.12-.09,1.27,2.16-.08.07a28.68,28.68,0,0,1-3.78,3.24,44.13,44.13,0,0,1-4.94,2.55c-.61.29-1.1.52-1.32.64a28.87,28.87,0,0,0-4.55,3.69A3.87,3.87,0,0,1,121.57,170.59Zm16.08-13.12c-.51.41-2.6,2.08-3.2,2.74s-5,3-5.86,3.45a13,13,0,0,0-3.63,3.26c-.24.3-.45.62-.66.94-.56.87-1.09,1.69-2.09,1.72h-.65c-.57,0-1.52,0-1.59.17,0,0,0,.05.09.15a2.33,2.33,0,0,0,1.51.43h0a3.6,3.6,0,0,0,2.58-1.09,30,30,0,0,1,4.61-3.73c.23-.13.72-.35,1.34-.64a44.28,44.28,0,0,0,4.9-2.54,28.14,28.14,0,0,0,3.67-3.13Z" transform="translate(-6.52 -47.51)"/><path class="cls-4" d="M138.19,158.39a24.28,24.28,0,0,1-2.09,2.12,15.76,15.76,0,0,1-5.87,3.37,8.55,8.55,0,0,0-2.39,1.22,10.24,10.24,0,0,1,2.41-1.43c1.32-.52,3.12-.9,6.59-4.21l1.29-1.42Z" transform="translate(-6.52 -47.51)"/><path class="cls-3" d="M117.63,164.84c.92.26,18.29-7.23,20.15-8.08l-.92-2.11s-18.45,8.2-19.6,9.55C116.78,164.82,117.63,164.84,117.63,164.84Z" transform="translate(-6.52 -47.51)"/><path class="cls-4" d="M117.69,165h-.09s-.46,0-.58-.29a.56.56,0,0,1,.14-.56c1.16-1.36,18.9-9.26,19.65-9.59l.12-.06,1,2.36-.12,0C136.21,157.62,119.17,165,117.69,165Zm19.11-10.16c-1.58.7-18.37,8.21-19.44,9.47-.09.12-.14.22-.11.28s.25.14.38.14h.06c1.34,0,17.31-6.85,19.92-8Z" transform="translate(-6.52 -47.51)"/><polygon class="cls-4" points="130.82 108.35 118.92 113.64 130.65 108.05 130.82 108.35"/><path class="cls-3" d="M114.17,150.76c.75.6,19.59.73,21.64.7l0-2.31s-20.12.09-21.7.87C113.4,150.39,114.17,150.76,114.17,150.76Z" transform="translate(-6.52 -47.51)"/><path class="cls-4" d="M135,151.6c-.2,0-20-.06-20.89-.74,0,0-.41-.2-.42-.5s.11-.32.35-.45c1.59-.79,20.93-.89,21.76-.9h.12l0,2.58h-1Zm.67-2.32c-1.72,0-20.05.13-21.51.86-.14.07-.21.15-.21.21s.18.23.29.29c.66.5,14.92.69,20.76.69h.7Z" transform="translate(-6.52 -47.51)"/><polygon class="cls-4" points="129.22 102.94 116.25 103 129.18 102.6 129.22 102.94"/><path class="cls-3" d="M115.16,141.6a3.51,3.51,0,0,0,3.4,2.73,28.68,28.68,0,0,1,5.78.86c.82.28,4.46,1.94,6.55,2.47a27.65,27.65,0,0,0,4.88.59l.59-2.18s-3.29-.55-4.31-.54-5.52-1.59-6.43-2a12.19,12.19,0,0,0-4.86-.48c-1.41.1-2.77.76-3.68-.18S115.21,140.71,115.16,141.6Z" transform="translate(-6.52 -47.51)"/><path class="cls-4" d="M135.86,148.38h-.1a28.46,28.46,0,0,1-4.9-.59,45.61,45.61,0,0,1-5.2-1.93c-.63-.26-1.12-.46-1.37-.55a28.58,28.58,0,0,0-5.74-.85,3.91,3.91,0,0,1-2.78-1.33,2.63,2.63,0,0,1-.74-1.54c0-.37.21-.42.31-.42.31,0,.73.43,1.39,1.15l.44.47a1.57,1.57,0,0,0,1.21.47,7.16,7.16,0,0,0,1.23-.16c.37-.06.75-.13,1.14-.16s.89,0,1.33,0a10,10,0,0,1,3.59.53,37.07,37.07,0,0,0,6.37,2h0a42.59,42.59,0,0,1,4.31.54l.14,0Zm-20.52-6.95s0,.11,0,.17A2.33,2.33,0,0,0,116,143a3.62,3.62,0,0,0,2.6,1.24,28.53,28.53,0,0,1,5.82.87c.25.08.74.29,1.38.55a43.72,43.72,0,0,0,5.16,1.91,26.74,26.74,0,0,0,4.75.58l.53-1.94c-.64-.1-3.22-.51-4.13-.51l0-.13v.13c-1.08,0-5.56-1.6-6.47-2a9.85,9.85,0,0,0-3.49-.51c-.43,0-.88,0-1.31,0s-.75.1-1.12.16a7.47,7.47,0,0,1-1.27.16A1.81,1.81,0,0,1,117,143c-.15-.15-.3-.32-.45-.48C116.1,142,115.55,141.43,115.34,141.43Z" transform="translate(-6.52 -47.51)"/><path class="cls-4" d="M135.92,147.2a23.49,23.49,0,0,1-2.95-.1,15.74,15.74,0,0,1-6.42-2,8.65,8.65,0,0,0-2.51-1,10.22,10.22,0,0,1,2.67.82,15.49,15.49,0,0,0,7.52,2l1.89,0Z" transform="translate(-6.52 -47.51)"/><path class="cls-3" d="M116.92,136.31c.45.86,17.67,8.7,19.55,9.51l.88-2.13s-18.47-8.16-20.22-8.09C116.36,135.66,116.92,136.31,116.92,136.31Z" transform="translate(-6.52 -47.51)"/><path class="cls-4" d="M136.54,146l-.12-.05c-1-.44-19.12-8.62-19.61-9.57,0,0-.3-.35-.19-.63s.23-.25.5-.27h0c1.89,0,19.5,7.77,20.25,8.1l.12.05Zm-19.39-10.26c-.17,0-.27.05-.29.11s.07.28.16.38c.45.81,16.72,8.27,19.38,9.43l.78-1.9C135.61,143.06,118.91,135.73,117.15,135.73Z" transform="translate(-6.52 -47.51)"/><polygon class="cls-4" points="130.29 97.36 118.38 92.09 130.38 97.02 130.29 97.36"/><path class="cls-3" d="M114.85,156.37a3.45,3.45,0,0,0,4.17,1.17,27.65,27.65,0,0,1,5.65-1.5c.87-.07,4.85,0,7-.34a28.06,28.06,0,0,0,4.72-1.4l-.28-2.24s-3.24.81-4.18,1.22-5.69.73-6.67.73a12.2,12.2,0,0,0-4.66,1.5c-1.26.65-2.27,1.79-3.46,1.29S114.56,155.54,114.85,156.37Z" transform="translate(-6.52 -47.51)"/><path class="cls-4" d="M117.65,157.93a3.3,3.3,0,0,1-2.92-1.51.47.47,0,0,1,0-.42.35.35,0,0,1,.3-.12,5.16,5.16,0,0,1,1.54.54l.59.26a1.5,1.5,0,0,0,.55.11,3.59,3.59,0,0,0,1.81-.79,9.7,9.7,0,0,1,1-.61,13,13,0,0,1,4.72-1.51,35.79,35.79,0,0,0,6.62-.72c.94-.41,4.06-1.2,4.2-1.23l.14,0,.31,2.49-.09,0a27.85,27.85,0,0,1-4.74,1.4,43.47,43.47,0,0,1-5.52.3c-.68,0-1.22,0-1.47,0a28,28,0,0,0-5.62,1.5A4.13,4.13,0,0,1,117.65,157.93ZM115,156.14h-.09a.41.41,0,0,0,0,.18,3.07,3.07,0,0,0,2.68,1.34,3.86,3.86,0,0,0,1.32-.25,28,28,0,0,1,5.69-1.51c.26,0,.8,0,1.48,0a42.8,42.8,0,0,0,5.49-.3,26.8,26.8,0,0,0,4.59-1.35l-.25-2c-.63.16-3.21.83-4,1.18-1,.44-5.73.74-6.72.74a12.78,12.78,0,0,0-4.6,1.48,10.51,10.51,0,0,0-1,.6,3.81,3.81,0,0,1-2,.83,1.68,1.68,0,0,1-.65-.13l-.59-.26A5.44,5.44,0,0,0,115,156.14Z" transform="translate(-6.52 -47.51)"/><path class="cls-4" d="M136.1,153.28a22,22,0,0,1-2.75,1.08,15.66,15.66,0,0,1-6.7.66,8.75,8.75,0,0,0-2.67.13,10,10,0,0,1,2.77-.31c1.41.07,3.21.46,7.69-1.13l1.74-.77Z" transform="translate(-6.52 -47.51)"/><path class="cls-3" d="M144.47,114.07a3.6,3.6,0,0,0-1.14,4.26,30.79,30.79,0,0,1,1.48,5.78c.07.89,0,5,.34,7.14a29.07,29.07,0,0,0,1.37,4.82l2.19-.29s-.79-3.31-1.2-4.27-.71-5.82-.72-6.83a12.92,12.92,0,0,0-1.47-4.76c-.63-1.29-1.76-2.32-1.26-3.54S145.28,113.77,144.47,114.07Z" transform="translate(-6.52 -47.51)"/><path class="cls-4" d="M146.43,136.21l0-.09a29.69,29.69,0,0,1-1.38-4.85,47.46,47.46,0,0,1-.3-5.65c0-.69,0-1.24,0-1.5a30.12,30.12,0,0,0-1.47-5.74,4.11,4.11,0,0,1,.11-3.14,2.61,2.61,0,0,1,1.1-1.3c.28-.1.43,0,.48.08.17.27-.07.86-.47,1.81-.09.2-.18.4-.26.6-.33.83.14,1.56.67,2.41a11.37,11.37,0,0,1,.6,1,13.74,13.74,0,0,1,1.48,4.82c0,1.08.31,5.85.71,6.78s1.17,4.15,1.21,4.29l0,.14Zm-1.78-22.05a.34.34,0,0,0-.14,0,2.27,2.27,0,0,0-.95,1.16,3.8,3.8,0,0,0-.11,2.94,30.94,30.94,0,0,1,1.49,5.81c0,.27,0,.82,0,1.52a46.7,46.7,0,0,0,.29,5.61,29.17,29.17,0,0,0,1.33,4.7l2-.26c-.15-.64-.81-3.28-1.16-4.11-.42-1-.72-5.87-.73-6.88a13.38,13.38,0,0,0-1.45-4.7,9.53,9.53,0,0,0-.58-1c-.55-.88-1.08-1.71-.69-2.66.08-.2.17-.4.25-.61.24-.55.6-1.39.5-1.55Z" transform="translate(-6.52 -47.51)"/><path class="cls-4" d="M147.52,135.81a24.44,24.44,0,0,1-1.06-2.82,16.74,16.74,0,0,1-.66-6.85,8.93,8.93,0,0,0-.12-2.73,10.6,10.6,0,0,1,.3,2.83,16.47,16.47,0,0,0,1.12,7.87l.76,1.77Z" transform="translate(-6.52 -47.51)"/><path class="cls-3" d="M125,124.13c.08,1,12.93,15.07,14.35,16.57l1.62-1.61s-13.87-14.9-15.51-15.53C124.73,123.3,125,124.13,125,124.13Z" transform="translate(-6.52 -47.51)"/><path class="cls-4" d="M139.35,140.89l-.09-.09c-.77-.81-14.3-15.59-14.39-16.66a.76.76,0,0,1,0-.61c.07-.1.27-.21.6-.1,1.65.64,15,15,15.57,15.57l.08.1Zm-14.14-17.25a.11.11,0,0,0-.1,0c-.07.09,0,.31,0,.41.1.92,12.23,14.3,14.23,16.43l1.44-1.43c-1.18-1.27-13.85-14.82-15.38-15.41A.51.51,0,0,0,125.21,123.64Z" transform="translate(-6.52 -47.51)"/><polygon class="cls-4" points="133.5 92.45 124.55 82.84 133.72 92.19 133.5 92.45"/><path class="cls-3" d="M131.24,119.08a3.65,3.65,0,0,0,.55,4.39,30.22,30.22,0,0,1,3.53,4.76c.39.79,1.85,4.59,3,6.46a28.49,28.49,0,0,0,3.06,3.92l1.92-1.13s-2-2.74-2.7-3.47-2.84-5.1-3.22-6a12.53,12.53,0,0,0-3.14-3.82c-1.07-1-2.49-1.46-2.49-2.78S131.89,118.49,131.24,119.08Z" transform="translate(-6.52 -47.51)"/><path class="cls-4" d="M141.34,138.78l-.07-.08a28.26,28.26,0,0,1-3.08-3.94,46,46,0,0,1-2.39-5.1c-.27-.64-.48-1.14-.6-1.37a28.89,28.89,0,0,0-3.51-4.73,4.16,4.16,0,0,1-1.07-3,2.65,2.65,0,0,1,.54-1.63c.2-.18.39-.2.51-.07s.21.83.2,1.81c0,.23,0,.45,0,.66,0,.89.7,1.39,1.52,2,.31.22.63.45.93.71a13.4,13.4,0,0,1,3.17,3.87,37.79,37.79,0,0,0,3.19,6c.73.73,2.64,3.38,2.72,3.5l.08.11Zm-9.87-19.69s-.06,0-.14.09a2.43,2.43,0,0,0-.45,1.45,3.82,3.82,0,0,0,1,2.75,29.56,29.56,0,0,1,3.55,4.79c.12.24.33.74.6,1.38a48.29,48.29,0,0,0,2.37,5.07,27.82,27.82,0,0,0,3,3.83l1.71-1c-.39-.53-2-2.71-2.61-3.34s-2.87-5.14-3.25-6.07a13,13,0,0,0-3.1-3.77,10,10,0,0,0-.91-.7c-.84-.59-1.63-1.15-1.63-2.18,0-.21,0-.44,0-.66a4.27,4.27,0,0,0-.12-1.62Z" transform="translate(-6.52 -47.51)"/><path class="cls-4" d="M142.19,138a23.84,23.84,0,0,1-2-2.19,16.5,16.5,0,0,1-3.17-6.08,9,9,0,0,0-1.14-2.47,10.62,10.62,0,0,1,1.35,2.5,16.21,16.21,0,0,0,4,6.83l1.36,1.34Z" transform="translate(-6.52 -47.51)"/><path class="cls-3" d="M121.17,128.82a3.62,3.62,0,0,0,2.09,3.88,28.76,28.76,0,0,1,5,3.09c.65.59,3.37,3.57,5.09,4.89a28.25,28.25,0,0,0,4.27,2.48l1.38-1.77s-2.83-1.81-3.77-2.21-4.48-3.67-5.16-4.39a12.31,12.31,0,0,0-4.3-2.37c-1.33-.48-2.84-.42-3.32-1.64S121.56,128,121.17,128.82Z" transform="translate(-6.52 -47.51)"/><path class="cls-4" d="M137.66,143.32l-.1,0a28.43,28.43,0,0,1-4.28-2.5,45.5,45.5,0,0,1-4.06-3.84c-.48-.49-.86-.88-1.05-1.05a29.2,29.2,0,0,0-5-3.08,4,4,0,0,1-2.06-2.33,2.66,2.66,0,0,1-.09-1.72c0-.07.14-.28.34-.28s.56.59.94,1.63c.08.21.16.42.23.62.33.83,1.16,1,2.13,1.25.36.09.74.18,1.12.31a13.13,13.13,0,0,1,4.34,2.41c.74.77,4.2,4,5.12,4.36s3.67,2.15,3.78,2.22l.13.08ZM121.4,128.74s-.05,0-.11.14a2.38,2.38,0,0,0,.1,1.51,3.72,3.72,0,0,0,1.93,2.19,29.37,29.37,0,0,1,5,3.11c.2.18.58.57,1.06,1.06a43.57,43.57,0,0,0,4,3.82,28.17,28.17,0,0,0,4.15,2.43l1.23-1.58c-.55-.35-2.82-1.77-3.63-2.12-1-.41-4.52-3.7-5.21-4.42a12.7,12.7,0,0,0-4.24-2.34,11.05,11.05,0,0,0-1.09-.3c-1-.24-1.93-.46-2.3-1.41l-.24-.62C121.9,129.66,121.57,128.74,121.4,128.74Z" transform="translate(-6.52 -47.51)"/><path class="cls-4" d="M138.16,142.26a22.76,22.76,0,0,1-2.68-1.27,15.91,15.91,0,0,1-5.13-4.45,8.53,8.53,0,0,0-1.95-1.87,10.23,10.23,0,0,1,2.15,1.82,15.81,15.81,0,0,0,6.15,4.85l1.75.73Z" transform="translate(-6.52 -47.51)"/><path class="cls-3" d="M164.26,150.1a14.22,14.22,0,1,1-14.21-14.54A14.38,14.38,0,0,1,164.26,150.1Z" transform="translate(-6.52 -47.51)"/><path class="cls-4" d="M150.05,164.77a14.67,14.67,0,1,1,14.34-14.67A14.52,14.52,0,0,1,150.05,164.77Zm0-29.08a14.41,14.41,0,1,0,14.09,14.41A14.27,14.27,0,0,0,150.05,135.69Z" transform="translate(-6.52 -47.51)"/><path class="cls-4" d="M154.76,144.31a4.08,4.08,0,0,0-3.69,3.17,5.57,5.57,0,0,0,.68,3.77,18.18,18.18,0,0,0,1.6,1.54c.33.3-.3.91-.58,1.06a2.58,2.58,0,0,1-1.3,0,3.71,3.71,0,0,0-1.08.2,3.85,3.85,0,0,0-1.09-.2,2.58,2.58,0,0,1-1.3,0c-.28-.15-.91-.76-.58-1.06a18.18,18.18,0,0,0,1.6-1.54,5.62,5.62,0,0,0,.69-3.77,4.1,4.1,0,0,0-3.7-3.17,5.18,5.18,0,0,0-4,2.37,5.35,5.35,0,0,1,4.07-1.72c2.33.22,3.41,1.55,3.58,2.66s-.11,3.16-.92,3.83-1.85,1.39-1.47,1.89a1.74,1.74,0,0,0,1.3.72c.38,0,.55-.17.82-.06a2.58,2.58,0,0,0,1,.28h0a2.58,2.58,0,0,0,1-.28c.28-.11.44.06.82.06a1.74,1.74,0,0,0,1.3-.72c.38-.5-.65-1.22-1.46-1.89s-1.09-2.72-.93-3.83,1.25-2.44,3.58-2.66a5.35,5.35,0,0,1,4.07,1.72A5.18,5.18,0,0,0,154.76,144.31Z" transform="translate(-6.52 -47.51)"/><path class="cls-4" d="M142.12,147.84s1.57-1.87,3.46-1.87a3.49,3.49,0,0,1,3.2,1.8,5.12,5.12,0,0,0-3.29-1.54A5.33,5.33,0,0,0,142.12,147.84Z" transform="translate(-6.52 -47.51)"/><path class="cls-4" d="M143.15,147.61a2.45,2.45,0,0,0,2.69,2.39c2.69,0,2.72-1.87,2.72-1.87a2.77,2.77,0,0,1-2.82,1.61A2.45,2.45,0,0,1,143.15,147.61Z" transform="translate(-6.52 -47.51)"/><path class="cls-4" d="M146.3,148.16a.79.79,0,1,1-.79-.81A.79.79,0,0,1,146.3,148.16Z" transform="translate(-6.52 -47.51)"/><path class="cls-4" d="M142.89,147.69s3.4-2.07,5.71.16A6,6,0,0,0,142.89,147.69Z" transform="translate(-6.52 -47.51)"/><path class="cls-4" d="M158.65,147.84s-1.57-1.87-3.46-1.87a3.49,3.49,0,0,0-3.2,1.8,5.13,5.13,0,0,1,3.3-1.54A5.32,5.32,0,0,1,158.65,147.84Z" transform="translate(-6.52 -47.51)"/><path class="cls-4" d="M157.62,147.61a2.45,2.45,0,0,1-2.69,2.39c-2.69,0-2.72-1.87-2.72-1.87a2.79,2.79,0,0,0,2.82,1.61A2.45,2.45,0,0,0,157.62,147.61Z" transform="translate(-6.52 -47.51)"/><path class="cls-4" d="M154.47,148.16a.79.79,0,1,0,.79-.81A.79.79,0,0,0,154.47,148.16Z" transform="translate(-6.52 -47.51)"/><path class="cls-4" d="M157.88,147.69s-3.4-2.07-5.71.16A6,6,0,0,1,157.88,147.69Z" transform="translate(-6.52 -47.51)"/><path class="cls-4" d="M151.52,156.39a3.67,3.67,0,0,0-1.23.09,3.61,3.61,0,0,0-1.22-.09,17.7,17.7,0,0,1-1.83.25,4.53,4.53,0,0,0,1.83-.07,4.37,4.37,0,0,1,1.22.29,4.36,4.36,0,0,1,1.23-.29,4.49,4.49,0,0,0,1.82.07A17.23,17.23,0,0,1,151.52,156.39Z" transform="translate(-6.52 -47.51)"/><path class="cls-4" d="M152.19,155.25c-.19-.24-1-.67-1.37-.28s-.36.41-.57.41-.24,0-.58-.41-1.17,0-1.37.28-1.51,1.25-1.51,1.25c.47,0,2-1.29,2.33-1.44s1.11.76,1.12.78h0s.77-.93,1.13-.78,1.85,1.44,2.32,1.44C153.7,156.5,152.38,155.49,152.19,155.25Z" transform="translate(-6.52 -47.51)"/><path class="cls-4" d="M152.79,156.89c-.19,0-.75.48-1,.72a7.53,7.53,0,0,1-.94.62,1.46,1.46,0,0,0-.31,0H150a1.29,1.29,0,0,0-.35.05,8.13,8.13,0,0,1-.95-.63c-.28-.24-.83-.72-1-.72a2.13,2.13,0,0,1-.89-.2,1,1,0,0,0,.68.33c.41,0,.66.37.81.57a2.55,2.55,0,0,0,1.31.67c-1,.32-1.31,1.73-1.31,1.73.8-1.78,1.84-1.51,2-1.46h0c.13-.05,1.18-.32,2,1.46,0,0-.31-1.42-1.32-1.73a2.55,2.55,0,0,0,1.27-.67c.15-.2.41-.57.81-.57a1,1,0,0,0,.68-.33A2.13,2.13,0,0,1,152.79,156.89Z" transform="translate(-6.52 -47.51)"/></svg>