<svg id="Capa_1" data-name="Capa 1" xmlns="http://www.w3.org/2000/svg" viewBox="0 0 286.97 204.98"><defs><style>.cls-1{fill:#c60a1d;}.cls-2{fill:#ffc400;}.cls-3{fill:#ea596e;}.cls-4{fill:#f4a2b2;}.cls-5{fill:#dd2e44;}.cls-6{fill:#ffac33;}.cls-7{fill:#99aab5;}.cls-8{fill:#66757f;}</style></defs><path class="cls-1" d="M293.48,232a20.6,20.6,0,0,1-20.71,20.49H27.23A20.6,20.6,0,0,1,6.52,232V68A20.6,20.6,0,0,1,27.23,47.51H272.77A20.6,20.6,0,0,1,293.48,68Z" transform="translate(-6.52 -47.51)"/><path class="cls-2" d="M6.52,102.7h287v94.6H6.52Z" transform="translate(-6.52 -47.51)"/><path class="cls-3" d="M78.26,142.12v23.65a23.92,23.92,0,0,0,47.83,0V142.12Z" transform="translate(-6.52 -47.51)"/><path class="cls-4" d="M102.17,134.23h23.92v23.65H102.17Z" transform="translate(-6.52 -47.51)"/><path class="cls-5" d="M78.26,134.23h23.91v23.65H78.26Z" transform="translate(-6.52 -47.51)"/><ellipse class="cls-3" cx="95.66" cy="74.89" rx="23.91" ry="11.83"/><ellipse class="cls-6" cx="95.66" cy="68.98" rx="23.91" ry="5.91"/><path class="cls-7" d="M62.32,134.23h8v55.19h-8Zm71.74,0h8v55.19h-8Z" transform="translate(-6.52 -47.51)"/><path class="cls-8" d="M54.34,181.53H78.26v7.89H54.34Zm71.75,0H150v7.89H126.09ZM62.32,126.35h8v7.88h-8Zm71.74,0h8v7.88h-8Z" transform="translate(-6.52 -47.51)"/></svg>