<svg id="Capa_2" data-name="Capa 2" xmlns="http://www.w3.org/2000/svg" viewBox="0 0 300 280.26"><defs><style>.cls-1{fill:#fff;}</style></defs><path class="cls-1" d="M17.3,195a1.94,1.94,0,0,1-1.38-3.3l24.59-24.8a1.93,1.93,0,1,1,2.74,2.73l-24.58,24.8A1.94,1.94,0,0,1,17.3,195Z" transform="translate(0 -9.87)"/><path class="cls-1" d="M14.44,228.64a1.94,1.94,0,0,1-1.38-3.3l49.17-49.6A1.94,1.94,0,1,1,65,178.47L15.81,228.06A1.91,1.91,0,0,1,14.44,228.64Z" transform="translate(0 -9.87)"/><circle class="cls-1" cx="46.88" cy="22" r="5.19"/><circle class="cls-1" cx="60.72" cy="22" r="5.19"/><circle class="cls-1" cx="74.55" cy="22" r="5.19"/><path class="cls-1" d="M102.29,110.48a1.67,1.67,0,0,1-1.19-2.85l21.31-21.5a1.68,1.68,0,1,1,2.38,2.36L103.48,110A1.67,1.67,0,0,1,102.29,110.48Z" transform="translate(0 -9.87)"/><path class="cls-1" d="M214,57.89a1.65,1.65,0,0,1-1.18-.49,1.67,1.67,0,0,1,0-2.37l21.31-21.49a1.68,1.68,0,0,1,2.38,2.36L215.2,57.39A1.68,1.68,0,0,1,214,57.89Z" transform="translate(0 -9.87)"/><path class="cls-1" d="M70.75,117.53a1.28,1.28,0,0,1-.89-.36,1.24,1.24,0,0,1,0-1.77l29-28.86a1.27,1.27,0,0,1,1.79,0,1.24,1.24,0,0,1,0,1.77L71.65,117.16A1.26,1.26,0,0,1,70.75,117.53Z" transform="translate(0 -9.87)"/><path class="cls-1" d="M176.55,73.51a1.69,1.69,0,0,1-1.18-.49,1.67,1.67,0,0,1,0-2.37L213.66,32A1.68,1.68,0,1,1,216,34.38L177.74,73A1.68,1.68,0,0,1,176.55,73.51Z" transform="translate(0 -9.87)"/><path class="cls-1" d="M241.06,158.63a1.91,1.91,0,0,1-1.37-.56,1.94,1.94,0,0,1,0-2.73l24.59-24.8a1.93,1.93,0,1,1,2.74,2.72l-24.58,24.8A1.94,1.94,0,0,1,241.06,158.63Z" transform="translate(0 -9.87)"/><path class="cls-1" d="M216.47,216.78a2,2,0,0,1-1.36-.56,1.93,1.93,0,0,1,0-2.73l49.17-49.6a1.93,1.93,0,1,1,2.74,2.72l-49.16,49.6A2,2,0,0,1,216.47,216.78Z" transform="translate(0 -9.87)"/><path class="cls-1" d="M287.91,83.63H276V25.9a16,16,0,0,0-16-16H40a16,16,0,0,0-16,16V131.08H12.09A12.1,12.1,0,0,0,0,143.17V278a12.1,12.1,0,0,0,12.09,12.09H76.23A12.1,12.1,0,0,0,88.32,278V182.85h31.32l-7.43,19.22h-2.36c-5.6,0-10.15,5.64-10.15,12.57v11.9h47.86V278a12.1,12.1,0,0,0,12.09,12.09H287.91A12.1,12.1,0,0,0,300,278V95.72A12.11,12.11,0,0,0,287.91,83.63ZM82.52,278a6.29,6.29,0,0,1-6.29,6.29H12.09A6.29,6.29,0,0,1,5.8,278v-7.23H82.52Zm0-13H5.8V156.2H82.52Zm0-114.61H5.8v-7.23a6.29,6.29,0,0,1,6.29-6.29H76.23a6.29,6.29,0,0,1,6.29,6.29Zm65,26.07H88.32v-19h59.24ZM125,182.85h22.53v19.22H117.61Zm-21.27,38.66v-6.87c0-4.16,2.73-7.54,6.09-7.54h37.71v14.41Zm43.8-125.79V152.4H88.32v-9.23a12.1,12.1,0,0,0-12.09-12.09H30.38V25.9A9.68,9.68,0,0,1,40,16.24H260a9.67,9.67,0,0,1,9.66,9.66V83.63h-110A12.11,12.11,0,0,0,147.56,95.72ZM294.2,278a6.29,6.29,0,0,1-6.29,6.29H159.65a6.29,6.29,0,0,1-6.29-6.29V264.83H294.2Zm0-19H153.36V114.74H294.2Zm0-150.09H153.36V95.72a6.29,6.29,0,0,1,6.29-6.28H287.91a6.29,6.29,0,0,1,6.29,6.28Z" transform="translate(0 -9.87)"/></svg>