<svg id="Capa_2" data-name="Capa 2" xmlns="http://www.w3.org/2000/svg" viewBox="0 0 298.48 274.6"><defs><style>.cls-1{fill:#fff;}</style></defs><path class="cls-1" d="M281.35,93.71H18.65A11.22,11.22,0,0,1,7.44,82.5V23.91A11.22,11.22,0,0,1,18.65,12.7h262.7a11.22,11.22,0,0,1,11.21,11.21V82.5A11.22,11.22,0,0,1,281.35,93.71ZM18.65,18.52a5.4,5.4,0,0,0-5.39,5.39V82.5a5.39,5.39,0,0,0,5.39,5.39h262.7a5.39,5.39,0,0,0,5.39-5.39V23.91a5.4,5.4,0,0,0-5.39-5.39Z" transform="translate(-0.76 -12.7)"/><rect class="cls-1" x="32.23" y="21.88" width="5.82" height="37.25"/><rect class="cls-1" x="51.1" y="21.88" width="5.82" height="37.25"/><rect class="cls-1" x="69.98" y="21.88" width="5.82" height="37.25"/><rect class="cls-1" x="88.85" y="21.88" width="5.82" height="37.25"/><rect class="cls-1" x="107.72" y="21.88" width="5.82" height="37.25"/><rect class="cls-1" x="126.59" y="21.88" width="5.82" height="37.25"/><path class="cls-1" d="M210,71.13a17.93,17.93,0,1,1,17.93-17.92A17.94,17.94,0,0,1,210,71.13Zm0-30A12.11,12.11,0,1,0,222.1,53.21,12.12,12.12,0,0,0,210,41.1Z" transform="translate(-0.76 -12.7)"/><path class="cls-1" d="M254.8,71.13a17.93,17.93,0,1,1,17.92-17.92A18,18,0,0,1,254.8,71.13Zm0-30a12.11,12.11,0,1,0,12.1,12.11A12.13,12.13,0,0,0,254.8,41.1Z" transform="translate(-0.76 -12.7)"/><path class="cls-1" d="M281.35,200.86H18.65a11.22,11.22,0,0,1-11.21-11.2v-58.6a11.22,11.22,0,0,1,11.21-11.21h262.7a11.22,11.22,0,0,1,11.21,11.21v58.6A11.22,11.22,0,0,1,281.35,200.86ZM18.65,125.67a5.4,5.4,0,0,0-5.39,5.39v58.6A5.39,5.39,0,0,0,18.65,195h262.7a5.39,5.39,0,0,0,5.39-5.38v-58.6a5.4,5.4,0,0,0-5.39-5.39Z" transform="translate(-0.76 -12.7)"/><rect class="cls-1" x="32.23" y="129.03" width="5.82" height="37.25"/><rect class="cls-1" x="51.1" y="129.03" width="5.82" height="37.25"/><rect class="cls-1" x="69.98" y="129.03" width="5.82" height="37.25"/><rect class="cls-1" x="88.85" y="129.03" width="5.82" height="37.25"/><rect class="cls-1" x="107.72" y="129.03" width="5.82" height="37.25"/><rect class="cls-1" x="126.59" y="129.03" width="5.82" height="37.25"/><path class="cls-1" d="M210,178.28a17.93,17.93,0,1,1,17.93-17.92A17.94,17.94,0,0,1,210,178.28Zm0-30a12.11,12.11,0,1,0,12.11,12.11A12.12,12.12,0,0,0,210,148.25Z" transform="translate(-0.76 -12.7)"/><path class="cls-1" d="M254.8,178.28a17.93,17.93,0,1,1,17.92-17.92A18,18,0,0,1,254.8,178.28Zm0-30a12.11,12.11,0,1,0,12.1,12.11A12.13,12.13,0,0,0,254.8,148.25Z" transform="translate(-0.76 -12.7)"/><rect class="cls-1" x="37.56" y="78.1" width="5.82" height="31.96"/><rect class="cls-1" x="255.1" y="78.1" width="5.82" height="31.96"/><rect class="cls-1" x="146.33" y="185.26" width="5.82" height="47.56"/><path class="cls-1" d="M150,287.3a22.82,22.82,0,1,1,22.82-22.82A22.85,22.85,0,0,1,150,287.3Zm0-39.82a17,17,0,1,0,17,17A17,17,0,0,0,150,247.48Z" transform="translate(-0.76 -12.7)"/><rect class="cls-1" x="28.93" y="248.87" width="100.39" height="5.82"/><path class="cls-1" d="M17.28,281a16.52,16.52,0,1,1,16.51-16.51A16.53,16.53,0,0,1,17.28,281Zm0-27.21A10.7,10.7,0,1,0,28,264.48,10.71,10.71,0,0,0,17.28,253.78Z" transform="translate(-0.76 -12.7)"/><rect class="cls-1" x="169.15" y="248.87" width="100.39" height="5.82"/><path class="cls-1" d="M282.72,281a16.52,16.52,0,1,1,16.52-16.51A16.53,16.53,0,0,1,282.72,281Zm0-27.21a10.7,10.7,0,1,0,10.7,10.7A10.7,10.7,0,0,0,282.72,253.78Z" transform="translate(-0.76 -12.7)"/></svg>