<svg id="Capa_2" data-name="Capa 2" xmlns="http://www.w3.org/2000/svg" viewBox="0 0 300 279.59"><defs><style>.cls-1{fill:#fff;}</style></defs><path class="cls-1" d="M72,169.71a3.75,3.75,0,0,1-2.38-.71,4.93,4.93,0,0,1-1.45-2.24L56.71,134.45A3.1,3.1,0,0,1,57,131.5a3.25,3.25,0,0,1,2.87-1.21,3.47,3.47,0,0,1,2.3.69,4.59,4.59,0,0,1,1.31,2.16l9.84,29.19H71.09l10.27-29.14A5.29,5.29,0,0,1,82.73,131a3.17,3.17,0,0,1,2.13-.71,3,3,0,0,1,2.08.71,5.59,5.59,0,0,1,1.31,2.24l10,29.09H96.29l10-29.19A5,5,0,0,1,107.6,131a3.34,3.34,0,0,1,2.24-.71,2.87,2.87,0,0,1,2.57,1.21,3.16,3.16,0,0,1,.22,2.95L101.1,166.81A5.05,5.05,0,0,1,99.68,169,4.26,4.26,0,0,1,95,169a5.07,5.07,0,0,1-1.42-2.24L84,139.64H85.3l-9.62,27.17a5.12,5.12,0,0,1-1.4,2.19A3.51,3.51,0,0,1,72,169.71Z" transform="translate(0 -10.21)"/><path class="cls-1" d="M137.29,169.71a3.75,3.75,0,0,1-2.38-.71,4.85,4.85,0,0,1-1.45-2.24L122,134.45a3.1,3.1,0,0,1,.24-2.95,3.25,3.25,0,0,1,2.87-1.21,3.47,3.47,0,0,1,2.3.69,4.67,4.67,0,0,1,1.31,2.16l9.84,29.19h-2.19l10.28-29.14a5.29,5.29,0,0,1,1.37-2.19,3.15,3.15,0,0,1,2.13-.71,3,3,0,0,1,2.08.71,5.71,5.71,0,0,1,1.31,2.24l9.95,29.09h-1.92l10-29.19a5,5,0,0,1,1.31-2.14,3.34,3.34,0,0,1,2.24-.71,2.87,2.87,0,0,1,2.57,1.21,3.16,3.16,0,0,1,.22,2.95l-11.53,32.36A5,5,0,0,1,165,169a3.62,3.62,0,0,1-2.35.71,3.66,3.66,0,0,1-2.35-.71,5.07,5.07,0,0,1-1.42-2.24l-9.51-27.12h1.26L141,166.81a5.12,5.12,0,0,1-1.4,2.19A3.51,3.51,0,0,1,137.29,169.71Z" transform="translate(0 -10.21)"/><path class="cls-1" d="M202.62,169.71a3.75,3.75,0,0,1-2.38-.71,4.85,4.85,0,0,1-1.45-2.24l-11.43-32.31a3.1,3.1,0,0,1,.25-2.95,3.24,3.24,0,0,1,2.87-1.21,3.49,3.49,0,0,1,2.3.69,4.67,4.67,0,0,1,1.31,2.16l9.84,29.19h-2.19L212,133.19a5.19,5.19,0,0,1,1.37-2.19,3.13,3.13,0,0,1,2.13-.71,3,3,0,0,1,2.08.71,5.71,5.71,0,0,1,1.31,2.24l10,29.09h-1.92l10-29.19a4.89,4.89,0,0,1,1.31-2.14,3.32,3.32,0,0,1,2.24-.71,2.88,2.88,0,0,1,2.57,1.21,3.16,3.16,0,0,1,.22,2.95l-11.53,32.36a5,5,0,0,1-1.43,2.19,3.62,3.62,0,0,1-2.35.71,3.66,3.66,0,0,1-2.35-.71,5.07,5.07,0,0,1-1.42-2.24l-9.51-27.12H216l-9.63,27.17a5.11,5.11,0,0,1-1.39,2.19A3.53,3.53,0,0,1,202.62,169.71Z" transform="translate(0 -10.21)"/><path class="cls-1" d="M286.76,121.26c-13.3-63.33-69.53-111-136.76-111S26.54,57.93,13.24,121.26a37.81,37.81,0,0,0,0,57.48C26.54,242.08,82.77,289.79,150,289.79s123.46-47.71,136.76-111a37.81,37.81,0,0,0,0-57.48Zm-7.17-4.88a37.69,37.69,0,0,0-17.54-4.33H230.46a241.17,241.17,0,0,0-8.7-36.25h39.63A133.36,133.36,0,0,1,279.59,116.38ZM257.21,69.94H219.77a247.82,247.82,0,0,0-21-44.63A134.58,134.58,0,0,1,257.21,69.94ZM152.93,16.13a133.68,133.68,0,0,1,37,6.08,242.08,242.08,0,0,1,23.56,47.73H152.93Zm0,59.67h62.63a234.06,234.06,0,0,1,8.95,36.25H152.93Zm-5.86-59.67V69.94H86.48A240.86,240.86,0,0,1,110,22.22,133.32,133.32,0,0,1,147.07,16.13Zm0,59.67v36.25H75.49a235.2,235.2,0,0,1,9-36.25ZM101.24,25.3a247.26,247.26,0,0,0-21,44.64H42.74A134.63,134.63,0,0,1,101.24,25.3ZM38.61,75.8H78.26a240.86,240.86,0,0,0-8.71,36.25H38a37.69,37.69,0,0,0-17.54,4.33A133.58,133.58,0,0,1,38.61,75.8ZM20.41,183.62A37.69,37.69,0,0,0,38,188H69.56a239.57,239.57,0,0,0,8.76,36.25H38.61A133.82,133.82,0,0,1,20.41,183.62Zm22.32,46.44H80.3a246.86,246.86,0,0,0,21,44.67A134.3,134.3,0,0,1,42.73,230.06Zm104.34,53.79a133.33,133.33,0,0,1-36.93-6.06,241.17,241.17,0,0,1-23.61-47.73h60.54Zm0-59.65H84.49a234.84,234.84,0,0,1-9-36.25h71.58Zm5.86,59.68V230.06h60.54a241.79,241.79,0,0,1-23.66,47.82A133.37,133.37,0,0,1,152.93,283.88Zm0-59.68V188h71.58a234.86,234.86,0,0,1-9,36.25Zm45.72,50.54a247.3,247.3,0,0,0,21-44.68h37.57A134.53,134.53,0,0,1,198.65,274.74Zm62.74-50.54H221.68A239.57,239.57,0,0,0,230.44,188h31.61a37.69,37.69,0,0,0,17.54-4.33A133.82,133.82,0,0,1,261.39,224.2Zm.66-42.11H38a32.09,32.09,0,0,1,0-64.18h224.1a32.09,32.09,0,0,1,0,64.18Z" transform="translate(0 -10.21)"/></svg>