<svg id="Capa_4" data-name="Capa 4" xmlns="http://www.w3.org/2000/svg" viewBox="0 0 1920 942.11"><defs><style>.cls-1{fill:#fff;}</style></defs><path class="cls-1" d="M1580.92,127.3c-45,14.61-103.06,36.68-192.86,89.54-103.53,60.94-230.69,151.45-388.76,276.7-137.42,108.89-215.85,178.89-273.12,230C651.88,789.87,618,820.14,540.31,858.66,381.59,937.39,200,970.93,0,958.53v50.08q40.55,2.43,80.15,2.44c176.29,0,338.12-36,482.38-107.6,83.7-41.52,121.55-75.3,197-142.6,56.8-50.7,134.6-120.14,270.87-228.12,327.08-259.17,465.34-325.16,566-357.88,103.29-33.56,212-52.3,323.63-55.88V69C1803.08,72.54,1689.19,92.12,1580.92,127.3Z" transform="translate(0 -68.95)"/></svg>