<svg id="Capa_3" data-name="Capa 3" xmlns="http://www.w3.org/2000/svg" viewBox="0 0 1247.73 1080"><defs><style>.cls-1{fill:#812276;}</style></defs><path class="cls-1" d="M1849.57,0h-50.51c15.94,110.21,24.46,224.9-80.33,357.58C1645,451,1569,494.4,1265.11,567.28c-217.79,52.23-385,110.34-497,172.73-51,28.42-90.19,57.7-116.4,87-26.91,30.1-40.63,60.57-40.76,90.59-.18,41.37,12.18,73,41.33,105.9,15.15,17.07,35.26,35.07,63.55,56.5h86.4c-57.28-38.68-91.73-66.22-112.54-89.68-24.08-27.14-28.85-47.86-28.74-72.5.08-17.43,9.51-36.77,28-57.48,22.49-25.15,57.31-50.94,103.47-76.65,108-60.17,271-116.62,484.32-167.78,160.63-38.52,254-67.53,322.43-100.11,66.37-31.62,112.37-68.48,158.77-127.23C1873.13,242.76,1865.72,114.4,1849.57,0Z" transform="translate(-610.95)"/></svg>